PathFileType	4	(X/Y/Z)	G:\GRF\jawan data\CompiledGRF\03. Mohit Kumar\0231~ac~Walking 09_markers.trc
DataRate	CameraRate	NumFrames	NumMarkers	Units	OrigDataRate	OrigDataStartFrame	OrigNumFrames
100.000000	100.000000	5	18	mm	100.000000	315	840
Frame#	Time	c7			r should			l should			sacrum			r asis			r bar 1			r knee 1			r bar 2			r mall			r heel			r met			l asis			l bar 1			l knee 1			l bar 2			l mall			l heel			l met			
		X1	Y1	Z1	X2	Y2	Z2	X3	Y3	Z3	X4	Y4	Z4	X5	Y5	Z5	X6	Y6	Z6	X7	Y7	Z7	X8	Y8	Z8	X9	Y9	Z9	X10	Y10	Z10	X11	Y11	Z11	X12	Y12	Z12	X13	Y13	Z13	X14	Y14	Z14	X15	Y15	Z15	X16	Y16	Z16	X17	Y17	Z17	X18	Y18	Z18	

316	3.15	-635.955078125	1513.850830078125	276.2409362792969	-580.8616943359375	1465.292358398438	435.9790344238281	-589.0115356445313	1478.046997070313	113.0743026733398	-748.3076171875	1057.883056640625	265.3414001464844	-563.5633544921875	1023.367431640625	381.8762512207031	-592.844482421875	609.2507934570313	446.2857971191406	-573.7381591796875	525.605224609375	391.2156066894531	-632.5748291015625	201.2413482666016	413.7539367675781	-633.9904174804688	76.38267517089844	350.0598754882813	-696.0003662109375	40.47724533081055	306.6109924316406	-485.2103881835938	43.87638092041016	337.6679382324219	-576.5202026367188	1021.831604003906	136.2237396240234	-530.2799682617188	610.0292358398438	53.31687927246094	-493.464599609375	521.36962890625	100.8050994873047	-712.2617797851563	349.195068359375	66.50626373291016	-833.5755004882813	226.4966888427734	136.3710174560547	-900.7909545898438	240.0377197265625	193.4164123535156	nan	nan	nan	
317	3.16	-626.4531860351563	1514.33544921875	276.9141235351563	-570.987548828125	1465.976928710938	436.4004211425781	-580.3458862304688	1478.526123046875	113.7503890991211	-739.3399658203125	1058.244995117188	265.6972961425781	-554.8846435546875	1023.491394042969	383.0863647460938	-589.1690063476563	609.1491088867188	446.376220703125	-570.6072998046875	525.2142944335938	391.3374633789063	-632.07177734375	201.3704833984375	413.5239868164063	-633.7823486328125	76.494140625	349.857666015625	-695.820556640625	40.59993362426758	306.3660888671875	-484.9429931640625	43.55271148681641	337.7395935058594	-566.793701171875	1022.837768554688	137.5563812255859	-511.1554870605469	613.7654418945313	53.77095794677734	-474.9541931152344	525.3455810546875	102.2218933105469	-688.3643188476563	345.6995849609375	66.96112823486328	-806.5748291015625	219.6580963134766	136.853759765625	-875.3345947265625	230.2530670166016	193.7852783203125	nan	nan	nan	
318	3.17	-616.92138671875	1514.684448242188	277.493408203125	-561.1888427734375	1466.504028320313	436.84228515625	-571.2379760742188	1478.754516601563	114.3690567016602	-730.2318115234375	1058.414184570313	265.9358520507813	-546.9013671875	1023.159484863281	383.8576049804688	-585.3134155273438	608.9761352539063	446.3625183105469	-567.5155639648438	524.8125610351563	391.4248352050781	-631.2278442382813	201.376708984375	413.3376159667969	-633.5114135742188	76.58573913574219	349.6412048339844	-695.6498413085938	40.72528457641602	306.1224670410156	-484.6078796386719	43.23251342773438	337.8360290527344	-557.3008422851563	1023.796691894531	138.6255187988281	-492.6276245117188	617.481201171875	54.49205780029297	-456.8013000488281	529.23193359375	103.5914306640625	-663.9532470703125	341.3089599609375	67.50641632080078	-779.1118774414063	212.1683807373047	137.4094848632813	-848.8650512695313	219.5805358886719	194.4319458007813	nan	nan	nan	
319	3.18	-607.66552734375	1514.94677734375	278.015380859375	-551.4508666992188	1466.8896484375	437.2226257324219	-562.2880249023438	1478.91064453125	114.9610824584961	-721.375244140625	1058.612670898438	266.0318298339844	-538.1218872070313	1022.912048339844	384.4219970703125	-581.309326171875	608.748291015625	446.3583679199219	-564.4265747070313	524.4421997070313	391.5211791992188	-630.268798828125	201.4919891357422	413.0858154296875	-633.2066040039063	76.65558624267578	349.434814453125	-695.4918823242188	40.87256622314453	305.9034423828125	-484.368408203125	43.04838562011719	337.8720092773438	-547.9869995117188	1024.665649414063	139.5123291015625	-474.7575073242188	621.1025390625	55.26810073852539	-439.1517639160156	532.881103515625	104.9889144897461	-639.4545288085938	336.5568237304688	68.12763214111328	-751.0239868164063	204.0447387695313	138.1601409912109	-821.4578857421875	208.1168670654297	195.2834014892578	nan	nan	nan	
320	3.19	-597.9903564453125	1515.02099609375	278.4823913574219	-541.8202514648438	1467.107299804688	437.5860595703125	-553.2094116210938	1478.8173828125	115.3922653198242	-712.620361328125	1058.687255859375	266.0081176757813	-529.8231811523438	1022.446533203125	385.00927734375	-577.4763793945313	608.529296875	446.3855285644531	-561.3406982421875	523.99853515625	391.5970458984375	-629.2628173828125	201.6037750244141	412.881591796875	-632.8989868164063	76.70079803466797	349.2378234863281	-695.3729248046875	41.06393051147461	305.6668395996094	-484.0596313476563	42.84029388427734	337.8104248046875	-538.8333740234375	1025.1337890625	139.9657897949219	-457.5288696289063	624.4371948242188	56.07319641113281	-422.2372741699219	536.3650512695313	106.4500350952148	-614.9795532226563	331.4372253417969	68.90174865722656	-722.0888061523438	195.34228515625	138.8317413330078	-792.9962768554688	195.9606781005859	196.1240539550781	nan	nan	nan	
